<?xml version="1.0" encoding="iso-8859-1"?>
<!-- Generator: Adobe Illustrator 19.0.0, SVG Export Plug-In . SVG Version: 6.00 Build 0)  -->
<svg version="1.1" id="Capa_1" xmlns="http://www.w3.org/2000/svg" xmlns:xlink="http://www.w3.org/1999/xlink" x="0px" y="0px"
	 viewBox="0 0 512 512" style="enable-background:new 0 0 512 512;" xml:space="preserve">
<path style="fill:#FC5271;" d="M482,148.958H30c-11.046,0-20,8.954-20,20V455c0,11.046,8.954,20,20,20h452c11.046,0,20-8.954,20-20
	V168.958C502,157.913,493.046,148.958,482,148.958z"/>
<path style="fill:#EA1B51;" d="M482,148.958H30c-7.055,0-13.244,3.662-16.804,9.18L180.294,295.6l151.398,0.012l167.112-137.474
	C495.244,152.62,489.055,148.958,482,148.958z"/>
<path style="fill:#34D4E0;" d="M287.979,247.993c-12.596,0-23.955,5.504-31.979,14.324c-8.024-8.82-19.383-14.324-31.979-14.324
	c-24.312,0-44.021,20.5-44.021,45.789c0,42.628,76,84.211,76,84.211s76-41.583,76-84.211
	C332,268.494,312.291,247.993,287.979,247.993z"/>
<path d="M482,138.958H290.32c-5.523,0-10,4.477-10,10s4.477,10,10,10H482c0.021,0,0.042,0.003,0.063,0.003L355.212,263.314
	c-4.265,3.509-4.878,9.811-1.37,14.075c1.977,2.404,4.841,3.647,7.729,3.647c2.236,0,4.485-0.746,6.347-2.277L492,176.685v270.59
	l-121.177-99.687c-4.265-3.507-10.567-2.895-14.076,1.37s-2.896,10.566,1.37,14.075l123.945,101.964
	c-0.021,0-0.041,0.003-0.062,0.003H30c-0.021,0-0.042-0.003-0.063-0.003l126.851-104.353c4.265-3.509,4.878-9.811,1.37-14.076
	c-3.508-4.264-9.81-4.877-14.076-1.369L20,447.274V176.685l121.177,99.686c1.862,1.531,4.111,2.277,6.347,2.277
	c2.887,0,5.751-1.244,7.729-3.647c3.509-4.265,2.896-10.566-1.37-14.075L29.938,158.962c0.021,0,0.042-0.003,0.063-0.003h189.654
	c5.523,0,10-4.477,10-10s-4.477-10-10-10H30c-16.542,0-30,13.458-30,30V455c0,16.542,13.458,30,30,30h452c16.542,0,30-13.458,30-30
	V168.958C512,152.417,498.542,138.958,482,138.958z"/>
<path d="M256,158.958h0.125c5.523,0,10-4.477,10-10s-4.477-10-10-10H256c-5.523,0-10,4.477-10,10S250.477,158.958,256,158.958z"/>
<path d="M224.021,237.994c-29.787,0-54.021,25.027-54.021,55.789c0,20.801,14.004,42.937,41.625,65.795
	c19.512,16.148,38.766,26.745,39.576,27.188c1.495,0.818,3.147,1.228,4.8,1.228c1.653,0,3.305-0.409,4.8-1.228
	c0.81-0.443,20.063-11.04,39.576-27.188C327.996,336.719,342,314.583,342,293.782c0-30.762-24.234-55.789-54.021-55.789
	c-11.536,0-22.771,3.869-31.979,10.837C246.792,241.863,235.557,237.994,224.021,237.994z M287.979,257.994
	c18.759,0,34.021,16.055,34.021,35.788c0,27.838-43.897,59.598-66,72.693c-22.107-13.1-66-44.856-66-72.693
	c0-19.733,15.262-35.788,34.021-35.788c9.368,0,18.098,3.925,24.582,11.053c1.895,2.083,4.581,3.271,7.397,3.271
	s5.502-1.188,7.397-3.271C269.881,261.919,278.611,257.994,287.979,257.994z"/>
<path d="M256,85.802c5.523,0,10-4.477,10-10V37c0-5.523-4.477-10-10-10s-10,4.477-10,10v38.802
	C246,81.325,250.477,85.802,256,85.802z"/>
<path d="M294.777,106.492c1.849,1.489,4.065,2.213,6.267,2.213c2.922,0,5.818-1.275,7.794-3.727l29.668-36.829
	c3.464-4.301,2.787-10.596-1.514-14.061c-4.302-3.466-10.596-2.786-14.061,1.514l-29.668,36.829
	C289.798,96.731,290.476,103.027,294.777,106.492z"/>
<path d="M203.212,105.204c1.976,2.453,4.872,3.727,7.794,3.727c2.202,0,4.418-0.724,6.267-2.213
	c4.301-3.465,4.979-9.76,1.514-14.061l-29.718-36.891c-3.465-4.301-9.759-4.979-14.061-1.514c-4.301,3.465-4.979,9.76-1.514,14.061
	L203.212,105.204z"/>
<g>
</g>
<g>
</g>
<g>
</g>
<g>
</g>
<g>
</g>
<g>
</g>
<g>
</g>
<g>
</g>
<g>
</g>
<g>
</g>
<g>
</g>
<g>
</g>
<g>
</g>
<g>
</g>
<g>
</g>
</svg>
